<?xml version="1.0" encoding="utf-8"?>
<!-- Generator: Adobe Illustrator 15.0.0, SVG Export Plug-In . SVG Version: 6.00 Build 0)  -->
<!DOCTYPE svg PUBLIC "-//W3C//DTD SVG 1.1//EN" "http://www.w3.org/Graphics/SVG/1.1/DTD/svg11.dtd">
<svg version="1.1" id="Layer_1" xmlns="http://www.w3.org/2000/svg" xmlns:xlink="http://www.w3.org/1999/xlink" x="0px" y="0px"
	 width="197.134px" height="195.823px" viewBox="0 0 197.134 195.823" enable-background="new 0 0 197.134 195.823"
	 xml:space="preserve">
<path fill="#B5121B" d="M33.424,97.927c0-34.168,25.904-62.249,59.14-65.765l-1.133-13.737c-5.58,0.562-10.996,1.685-16.176,3.338
	l-0.002,0.016c-4.289,1.368-8.414,3.098-12.354,5.138L43.143,15.887c-10.447,7.202-19.451,16.342-26.488,26.908L28.02,62.334
	c-1.772,3.561-3.293,7.269-4.526,11.107L1.701,79.657C0.604,85.583,0,91.683,0,97.927c0,6.692,0.673,13.229,1.931,19.552
	l21.836,5.738c1.109,3.33,2.418,6.566,3.938,9.686l-11.383,19.635c6.975,10.617,15.922,19.811,26.325,27.076l19.629-10.998
	c3.369,1.783,6.889,3.311,10.52,4.604l4.355-13.064C51.658,150.965,33.424,126.588,33.424,97.927z"/>
<path fill="#C6533F" d="M38.216,97.468c0,26.548,16.952,49.183,40.592,57.718l10.396-31.189
	c-10.604-4.156-18.139-14.465-18.139-26.528c0-14.379,10.705-26.27,24.559-28.21l-2.703-32.771
	C62.208,39.827,38.216,65.882,38.216,97.468z"/>
<path fill="#B5121B" d="M154.552,30.151c-7.979-6.466-16.908-11.406-26.586-14.723l-17.744,55.32
	c2.473,0.979,4.779,2.284,6.863,3.871L154.552,30.151z"/>
<path fill="#B5121B" d="M122.683,115.02l44.793,37.719c6.52-8.049,11.492-17.061,14.807-26.836l-55.787-17.695
	C125.531,110.659,124.246,112.95,122.683,115.02z"/>
<path fill="#C6533F" d="M106.964,69.674l18.789-58.575l2.227-6.938c-11.191-3.367-22.896-4.713-34.611-3.956l5.652,68.533
	c0.191-0.004,0.383-0.015,0.574-0.015C102.142,68.723,104.611,69.056,106.964,69.674z"/>
<path fill="#B5121B" d="M92.285,125.602l-21.912,65.734c9.502,2.979,19.361,4.486,29.336,4.486h0.002
	c1.736,0,3.488-0.047,5.229-0.139l-4.916-69.158c-0.143,0.002-0.283,0.01-0.428,0.01C97.07,126.536,94.621,126.209,92.285,125.602z"
	/>
<path fill="#D7846D" d="M114.238,122.551l16.391,32.035c6.48-3.482,12.258-7.998,17.211-13.453l-27.486-23.396
	C118.544,119.602,116.49,121.225,114.238,122.551z"/>
<path fill="#D7846D" d="M127.58,104.893l47.189,14.869c2.115-7.24,3.17-14.738,3.137-22.315c-0.008-1.421-0.059-2.863-0.145-4.309
	l-49.27,4.098c0,0.132,0.01,0.262,0.01,0.394C128.501,100.139,128.181,102.573,127.58,104.893z"/>
<path fill="#C6533F" d="M180.916,89.434l16.219-1.349c-1.18-11.69-4.408-22.938-9.613-33.483l-61.365,31.612
	c1.025,2.385,1.734,4.937,2.086,7.602L180.916,89.434z"/>
<path fill="#C6533F" d="M107.408,175.708c7.508-0.736,14.859-2.553,21.875-5.408c1.428-0.582,2.857-1.215,4.27-1.889l-22.457-44.258
	c-2.352,1.021-4.865,1.736-7.492,2.1L107.408,175.708z"/>
<path fill="#D7846D" d="M124.611,83.153l31.686-16.324c-3.5-6.471-8.031-12.234-13.5-17.173l-23.064,27.246
	C121.63,78.747,123.275,80.848,124.611,83.153z"/>
<circle fill="#D7846D" cx="99.595" cy="97.629" r="25.52"/>
</svg>
